<?xml version="1.0" encoding="UTF-8"?>
<svg height="1024" viewBox="0 0 1024 1024" width="1024" xmlns="http://www.w3.org/2000/svg">
  <path d="M1024,0L460.80,0L1024,563.20Z" fill="#E94560"/>
  <path d="M728.88,248.86L728.88,191.14L750.92,191.14Q759.58,191.14 765.73,194.47Q771.88,197.80 775.16,204.17Q778.44,210.54 778.44,219.70L778.44,219.78Q778.44,228.94 775.17,235.46Q771.90,241.98 765.75,245.42Q759.60,248.86 750.92,248.86ZM740.96,238.88L749.48,238.88Q754.88,238.88 758.59,236.71Q762.30,234.54 764.21,230.30Q766.12,226.06 766.12,219.82L766.12,219.74Q766.12,213.72 764.17,209.56Q762.22,205.40 758.50,203.26Q754.78,201.12 749.48,201.12L740.96,201.12ZM786.22,248.86L786.22,191.14L824.46,191.14L824.46,201.10L798.30,201.10L798.30,214.96L822.98,214.96L822.98,224.40L798.30,224.40L798.30,238.90L824.46,238.90L824.46,248.86ZM848.78,248.86L829.46,191.14L842.84,191.14L856.02,236.50L856.26,236.50L869.44,191.14L882.82,191.14L863.50,248.86Z" fill="#FFFFFF" transform="rotate(45,804,220)"/>
</svg>
